<svg width="35" height="35" viewBox="0 0 35 35" fill="none" xmlns="http://www.w3.org/2000/svg">
<g clip-path="url(#clip0_29_446)">
<path d="M33.5052 12.6789L23.1715 2.34515C20.0369 -0.781393 14.9632 -0.781393 11.8286 2.34515L1.49483 12.6789C0.53452 13.6341 -0.00374019 14.9337 1.95649e-05 16.2883V31.4228C0.00323245 33.3983 1.60475 34.9985 3.58027 35.0001H31.4198C33.3953 34.9985 34.9967 33.3983 35 31.4228V16.2883C35.0038 14.9337 34.4655 13.6341 33.5052 12.6789ZM30.625 30.6251H23.3334V25.9847C23.3334 22.9096 20.8405 20.4167 17.7654 20.4167H17.2346C14.1595 20.4167 11.6667 22.9096 11.6667 25.9847V30.6251H4.37501V16.2883C4.37549 16.0949 4.45192 15.9095 4.58795 15.772L14.9217 5.43827C16.3453 4.01428 18.6537 4.01401 20.0777 5.43759V5.43759L30.4121 15.772C30.5481 15.9095 30.6245 16.0949 30.625 16.2883L30.625 30.6251Z" fill="white"/>
</g>
<defs>
<clipPath id="clip0_29_446">
<rect width="35" height="35" fill="white"/>
</clipPath>
</defs>
</svg>
