<svg width="35" height="35" viewBox="0 0 35 35" fill="none" xmlns="http://www.w3.org/2000/svg">
<path d="M17.5 35C20.9612 35 24.3446 33.9736 27.2225 32.0507C30.1003 30.1278 32.3434 27.3947 33.6679 24.197C34.9924 20.9993 35.339 17.4806 34.6637 14.0859C33.9885 10.6913 32.3218 7.57306 29.8744 5.12564C27.427 2.67822 24.3087 1.01151 20.9141 0.336265C17.5194 -0.338976 14.0007 0.00758251 10.803 1.33212C7.60533 2.65665 4.87221 4.89967 2.94928 7.77753C1.02636 10.6554 0 14.0388 0 17.5C0.00501824 22.1398 1.85037 26.588 5.13117 29.8688C8.41197 33.1496 12.8603 34.995 17.5 35ZM17.5 7.29167C17.9326 7.29167 18.3556 7.41997 18.7153 7.66033C19.075 7.9007 19.3554 8.24234 19.521 8.64205C19.6866 9.04177 19.7299 9.4816 19.6455 9.90593C19.5611 10.3303 19.3527 10.72 19.0468 11.026C18.7409 11.3319 18.3511 11.5402 17.9268 11.6246C17.5024 11.709 17.0626 11.6657 16.6629 11.5002C16.2632 11.3346 15.9215 11.0542 15.6812 10.6945C15.4408 10.3348 15.3125 9.91182 15.3125 9.47917C15.3125 8.89901 15.543 8.34261 15.9532 7.93238C16.3634 7.52214 16.9198 7.29167 17.5 7.29167ZM16.0417 14.5833H17.5C18.2735 14.5833 19.0154 14.8906 19.5624 15.4376C20.1094 15.9846 20.4167 16.7265 20.4167 17.5V26.25C20.4167 26.6368 20.263 27.0077 19.9895 27.2812C19.716 27.5547 19.3451 27.7083 18.9583 27.7083C18.5716 27.7083 18.2006 27.5547 17.9271 27.2812C17.6536 27.0077 17.5 26.6368 17.5 26.25V17.5H16.0417C15.6549 17.5 15.284 17.3464 15.0105 17.0729C14.737 16.7994 14.5833 16.4284 14.5833 16.0417C14.5833 15.6549 14.737 15.284 15.0105 15.0105C15.284 14.737 15.6549 14.5833 16.0417 14.5833Z" fill="#505048"/>
</svg>
